<?xml version="1.0" encoding="UTF-8"?>
<svg version="1.1" xmlns="http://www.w3.org/2000/svg" width="980" height="980">
<path d="M0 0 C0.94836743 -0.00491497 1.89673486 -0.00982995 2.87384069 -0.01489386 C6.04012006 -0.0264504 9.20558953 -0.00957944 12.37183571 0.00723743 C14.66943021 0.00477598 16.96702339 0.0005597 19.26461184 -0.00525731 C25.56962438 -0.0161338 31.87437222 -0.00208345 38.17935896 0.01606309 C44.28348603 0.03168658 50.38760907 0.02454571 56.49174742 0.0198702 C68.97746811 0.01097552 81.46310853 0.0208056 93.94881248 0.04149914 C106.31623211 0.06196383 118.68361702 0.07455328 131.051054 0.07653713 C132.2057034 0.07673188 132.2057034 0.07673188 133.38367904 0.07693057 C136.50852066 0.07743053 139.63336227 0.07787049 142.75820391 0.07823266 C171.23064436 0.08153484 199.70303652 0.10387405 228.17545509 0.13829517 C255.04101685 0.17075802 281.90655424 0.19202592 308.77213478 0.19981861 C309.5996119 0.20006165 310.42708902 0.20030469 311.27964121 0.2005551 C315.44758732 0.2017772 319.61553343 0.20298052 323.78347955 0.20417689 C324.60599316 0.20441316 325.42850676 0.20464943 326.27594503 0.20489286 C327.93455294 0.20536704 329.59316086 0.20583719 331.25176877 0.20630332 C357.68154035 0.21378201 384.11130745 0.2295573 410.54107379 0.2475025 C418.27479899 0.25274335 426.00852412 0.25768739 433.74224997 0.26186442 C450.00612561 0.27075381 466.26999009 0.28243517 482.53385518 0.30343046 C489.25929742 0.31205024 495.98473038 0.31910881 502.71017838 0.32194614 C508.86862568 0.3246204 515.02704957 0.33193023 521.18548746 0.34293661 C523.4114959 0.3461324 525.63750746 0.34767622 527.86351816 0.34738632 C563.81852024 0.34589127 563.81852024 0.34589127 569.69791603 6.03795338 C574.54715907 12.42372982 575.43069802 19.07250776 575.72916603 26.86998463 C575.78717384 28.1171526 575.78717384 28.1171526 575.84635353 29.38951588 C575.93990849 31.42433618 576.02309316 33.45962878 576.10416603 35.49498463 C576.43416603 35.49498463 576.76416603 35.49498463 577.10416603 35.49498463 C577.1277839 53.74434681 577.1452842 71.9937049 577.1559782 90.24307919 C577.161081 98.72125869 577.16803228 107.19942848 577.17960548 115.67760181 C577.27054782 183.6123058 577.27054782 183.6123058 576.20777321 215.05876637 C575.98386559 222.48484875 575.95328165 229.91172288 575.97379494 237.34068775 C575.97927357 239.66562109 575.97369451 241.99036842 575.96744728 244.31529713 C575.96370756 253.76244411 576.22657866 263.18063108 576.60416603 272.61998463 C577.20542643 288.08077827 577.25923991 303.52784791 577.23273659 318.99709034 C577.22910404 321.4111846 577.2275306 323.82527271 577.22648048 326.23936939 C577.20654914 363.62788729 576.83732416 401.01442176 576.46012306 438.40074635 C576.44853849 439.55799025 576.43695393 440.71523415 576.42501831 441.90754604 C576.37051534 447.34626728 576.31492943 452.78497124 576.25660133 458.22365284 C576.13883755 469.51661433 576.08902989 480.80736611 576.1009922 492.10091114 C576.1142501 505.95017173 576.02907804 519.7992683 575.92026329 533.64804268 C575.88047173 538.76525157 575.84839713 543.88227752 575.83316994 548.9996233 C575.8179913 554.01781922 575.78358327 559.03555002 575.73585701 564.05353832 C575.72112161 565.94678876 575.71312956 567.84010515 575.71228218 569.73341274 C575.6942237 589.78842644 575.6942237 589.78842644 568.79166603 598.36998463 C562.56997274 603.28946304 557.11485515 603.93475648 549.43857002 603.88533211 C548.47865916 603.89108121 547.51874829 603.89683031 546.52974921 603.90275362 C543.30634588 603.91840098 540.08333479 603.91271945 536.85990334 603.9071703 C534.52833451 603.91404043 532.19676922 603.92221664 529.8652091 603.93158835 C524.12511947 603.95123681 518.38513298 603.95696649 512.64501247 603.9568536 C505.76883117 603.95749769 498.89272314 603.97549679 492.01657076 603.99405534 C478.54417614 604.02985968 465.07179782 604.0487135 451.59936322 604.06056174 C439.80948161 604.07100133 428.01962635 604.08739687 416.22976112 604.10967541 C415.44797224 604.11114578 414.66618336 604.11261616 413.86070391 604.1141311 C410.6872365 604.12011065 407.51376915 604.12612163 404.34030188 604.13217751 C374.56554392 604.18893329 344.79078445 604.22905303 315.01599079 604.26116297 C288.55788643 604.28978297 262.09983142 604.3309691 235.64176369 604.38341236 C233.94291963 604.38677597 232.24407558 604.39013924 230.54523152 604.39350215 C229.70535876 604.39516474 228.865486 604.39682733 228.00016254 604.39854031 C223.77242758 604.40690204 219.54469256 604.41523355 215.31695747 604.42353249 C214.48290535 604.42517057 213.64885323 604.42680865 212.7895268 604.42849637 C190.68693379 604.47173092 168.58432651 604.50545453 146.48171282 604.53613967 C144.10368459 604.53944908 141.72565637 604.54276006 139.34762815 604.54607433 C137.77008125 604.54827069 136.19253435 604.55045954 134.61498743 604.55264084 C123.61297384 604.56792936 112.61097199 604.58689789 101.60896884 604.60837313 C87.43136583 604.63603591 73.25377892 604.65716279 59.07615125 604.66669676 C52.23791595 604.67147011 45.39972123 604.67938779 38.56150436 604.69639492 C32.30573928 604.71161624 26.05003715 604.71759045 19.79425436 604.71607646 C17.5271895 604.71715591 15.26012326 604.72164677 12.99307293 604.72983251 C9.91855698 604.74042422 6.84428671 604.73870523 3.76976204 604.73384285 C2.88369689 604.73984368 1.99763175 604.74584451 1.08471614 604.75202718 C-7.57756073 604.71175716 -14.73221828 602.49285604 -21.89583397 597.49498463 C-28.04174387 590.56113756 -28.19452173 581.45763954 -28.15310287 572.60449696 C-28.15836199 571.16460047 -28.15836199 571.16460047 -28.16372734 569.69561517 C-28.17301922 566.48423019 -28.1681237 563.27302743 -28.16325951 560.06163502 C-28.16699685 557.73389285 -28.17159871 555.40615193 -28.17699015 553.07841301 C-28.18794266 547.35548987 -28.18959191 541.63261693 -28.18726844 535.909685 C-28.18499231 529.05235233 -28.19428512 522.19504742 -28.20382718 515.33772275 C-28.22315634 501.12198216 -28.22879495 486.90625602 -28.22994129 472.69050384 C-28.23086065 461.71396149 -28.23497875 450.73742479 -28.24134254 439.76088428 C-28.24313764 436.60046769 -28.24491727 433.44005108 -28.2466923 430.27963448 C-28.2471344 429.49393878 -28.24757649 428.70824308 -28.24803199 427.89873842 C-28.26033771 405.80339488 -28.26823336 383.7080533 -28.26734543 361.61270618 C-28.26731427 360.77989411 -28.26728311 359.94708203 -28.26725101 359.08903322 C-28.2670848 354.86804853 -28.26688672 350.64706384 -28.2666816 346.42607915 C-28.26664171 345.58778302 -28.26660182 344.74948688 -28.26656072 343.88578783 C-28.26647984 342.19055076 -28.26639625 340.49531369 -28.26630993 338.80007662 C-28.26508399 312.41547966 -28.28010676 286.03093407 -28.30745506 259.64635181 C-28.3381706 230.00100719 -28.35538796 200.35569632 -28.35352862 170.71033478 C-28.35337936 167.54991817 -28.35328194 164.38950157 -28.35321999 161.22908497 C-28.35319668 160.45091341 -28.35317337 159.67274185 -28.35314935 158.87098933 C-28.3530878 146.34560035 -28.36586186 133.82025596 -28.38308452 121.29488024 C-28.40003096 108.71027209 -28.40202251 96.12572924 -28.38886587 83.541116 C-28.38212208 76.72283688 -28.38174861 69.90470532 -28.39957237 63.08644199 C-28.41524201 56.84660471 -28.41250183 50.60705831 -28.39500411 44.36722839 C-28.3919208 42.10826615 -28.39561633 39.84928253 -28.40672426 37.5903455 C-28.42081612 34.52170128 -28.41028131 31.45408152 -28.39361191 28.3854723 C-28.40354827 27.50683722 -28.41348463 26.62820214 -28.42372209 25.72294176 C-28.33808725 18.2751837 -26.00123964 12.65309313 -21.89583397 6.49498463 C-21.23583397 6.49498463 -20.57583397 6.49498463 -19.89583397 6.49498463 C-19.89583397 5.83498463 -19.89583397 5.17498463 -19.89583397 4.49498463 C-13.09549942 1.32475417 -7.48139862 -0.08852254 0 0 Z M575.10416603 54.49498463 C575.10416603 56.14498463 575.10416603 57.79498463 575.10416603 59.49498463 C575.43416603 59.49498463 575.76416603 59.49498463 576.10416603 59.49498463 C576.10416603 57.84498463 576.10416603 56.19498463 576.10416603 54.49498463 C575.77416603 54.49498463 575.44416603 54.49498463 575.10416603 54.49498463 Z M575.10416603 166.49498463 C576.10416603 168.49498463 576.10416603 168.49498463 576.10416603 168.49498463 Z " fill="#191919" transform="translate(215.8958339691162,190.50501537322998)"/>
<path d="M0 0 C1.2684375 -0.01160156 2.536875 -0.02320313 3.84375 -0.03515625 C26.85161633 0.03527599 45.81055807 8.29411015 62.17578125 24.21875 C79.68725685 41.87592971 87.42139796 65.19630195 87.4375 89.6875 C87.44974609 90.65623047 87.46199219 91.62496094 87.47460938 92.62304688 C87.51595403 113.28159471 79.84619726 134.75505011 66.25 150.375 C65.58355469 151.18453125 64.91710937 151.9940625 64.23046875 152.828125 C50.18928586 169.32335246 31.06891383 178.7937822 9.59423828 180.59814453 C-12.8120537 181.86883025 -33.56959242 177.58849176 -50.75 162.375 C-51.74 161.385 -51.74 161.385 -52.75 160.375 C-53.08 194.035 -53.41 227.695 -53.75 262.375 C-73.22 262.375 -92.69 262.375 -112.75 262.375 C-112.75 177.235 -112.75 92.095 -112.75 4.375 C-93.61 4.375 -74.47 4.375 -54.75 4.375 C-54.75 10.645 -54.75 16.915 -54.75 23.375 C-53.698125 22.405625 -52.64625 21.43625 -51.5625 20.4375 C-43.53197795 13.43215098 -34.79062175 7.09006216 -24.75 3.375 C-23.71540649 2.97812988 -23.71540649 2.97812988 -22.65991211 2.57324219 C-15.12337096 -0.01853902 -7.91071463 -0.07148236 0 0 Z " fill="#FDFDFD" transform="translate(458.75,408.625)"/>
<path d="M0 0 C19.8 0 39.6 0 60 0 C60 56.43 60 112.86 60 171 C40.2 171 20.4 171 0 171 C0 114.57 0 58.14 0 0 Z " fill="#F9F9F9" transform="translate(573,413)"/>
<path d="M0 0 C0.7835083 -0.00636475 1.5670166 -0.01272949 2.37426758 -0.01928711 C13.34956674 0.2192813 23.87744699 4.62750667 31.5625 12.5 C40.37114059 23.22892424 41.60771019 35.16338255 40.3125 48.5 C39.03336999 57.08493024 33.49590481 65.84041775 27.03515625 71.4921875 C18.85737337 77.11179215 11.03504279 79.68958563 1.1875 79.75 C0.37023437 79.770625 -0.44703125 79.79125 -1.2890625 79.8125 C-11.04675822 79.87425757 -19.2108243 76.78751521 -26.6875 70.5 C-36.61604975 59.92521329 -39.10592138 50.1405258 -38.8984375 35.99609375 C-38.52973031 24.99632935 -33.95394639 16.34613239 -26.0625 8.75 C-18.05891198 2.30808769 -10.12440349 0.07005483 0 0 Z " fill="#1A1A1A" transform="translate(442.6875,458.5)"/>
<path d="M0 0 C5.62130717 4.32982491 10.1550174 8.61101109 13.19140625 15.078125 C13.55492187 15.78710938 13.9184375 16.49609375 14.29296875 17.2265625 C15.58076165 21.31390518 15.52039281 25.19299895 15.50390625 29.453125 C15.52001953 30.278125 15.53613281 31.103125 15.55273438 31.953125 C15.56031099 41.49966001 11.6953555 48.18515448 5.19140625 55.078125 C-4.93822602 63.64685085 -14.84236005 65.10312371 -27.80859375 64.078125 C-38.64380878 61.60792054 -44.55708619 55.02957968 -50.328125 45.95703125 C-54.75299495 37.35246884 -55.64148611 27.00889078 -52.78125 17.75390625 C-48.36246814 8.19415935 -41.37002676 0.57762289 -31.80859375 -3.921875 C-21.82828034 -7.27888951 -8.57645037 -5.86872543 0 0 Z " fill="#FCFCFC" transform="translate(622.80859375,312.921875)"/>
<path d="M0 0 C0.9075 0.33 1.815 0.66 2.75 1 C3.08 0.67 3.41 0.34 3.75 0 C8.7 0 13.65 0 18.75 0 C18.75 13.53 18.75 27.06 18.75 41 C13.8 41 8.85 41 3.75 41 C3.75 40.01 3.75 39.02 3.75 38 C2.6775 38.66 1.605 39.32 0.5 40 C-4.95538445 42.71798513 -10.27735537 42.81828606 -16.25 42 C-21.33845117 39.64423557 -25.01547443 35.5409789 -28.25 31 C-29.44104332 27.42687005 -29.45528823 24.45446678 -29.5 20.6875 C-29.52578125 19.39199219 -29.5515625 18.09648437 -29.578125 16.76171875 C-29.14052483 11.74494536 -27.73781741 8.57031025 -24.27734375 4.91796875 C-23.58769531 4.34691406 -22.89804687 3.77585937 -22.1875 3.1875 C-21.14916016 2.31158203 -21.14916016 2.31158203 -20.08984375 1.41796875 C-14.72797504 -2.71442688 -6.26498752 -1.81388756 0 0 Z " fill="#F5F5F5" transform="translate(526.25,321)"/>
<path d="M0 0 C4.95 0 9.9 0 15 0 C15 10.23 15 20.46 15 31 C16.98 29.68 18.96 28.36 21 27 C27.74197941 25.69655065 33.5819994 26.49581539 39.28125 30.3203125 C42.72547281 33.68625752 44.83208701 36.69587576 45.45410156 41.52685547 C45.4331543 42.79416504 45.41220703 44.06147461 45.390625 45.3671875 C45.38496521 46.04677521 45.37930542 46.72636292 45.37347412 47.42654419 C45.35125351 49.57677549 45.30109198 51.72528074 45.25 53.875 C45.22991614 55.3411216 45.21166868 56.80726958 45.1953125 58.2734375 C45.15485203 61.85014262 45.07655539 65.42316189 45 69 C40.05 69 35.1 69 30 69 C29.94392578 66.00292969 29.94392578 66.00292969 29.88671875 62.9453125 C29.83805095 61.01250569 29.78928034 59.0796999 29.73754883 57.14697266 C29.68790041 55.14117664 29.65345836 53.13502313 29.61914062 51.12890625 C29.58369141 49.87207031 29.54824219 48.61523438 29.51171875 47.3203125 C29.48553467 46.15773926 29.45935059 44.99516602 29.43237305 43.79736328 C29.28968994 42.8742334 29.14700684 41.95110352 29 41 C25.50875983 38.67250655 24.10777749 38.49700684 20 39 C17.19953537 41.13749749 16.1255077 42.34686602 15.45410156 45.84082031 C15.4331543 46.90913086 15.41220703 47.97744141 15.390625 49.078125 C15.35839844 50.23828125 15.32617188 51.3984375 15.29296875 52.59375 C15.27169922 54.40359375 15.27169922 54.40359375 15.25 56.25 C15.22035156 57.47203125 15.19070313 58.6940625 15.16015625 59.953125 C15.08948587 62.96839445 15.04247603 65.98420161 15 69 C10.05 69 5.1 69 0 69 C0 46.23 0 23.46 0 0 Z " fill="#F2F2F2" transform="translate(382,293)"/>
<path d="M0 0 C0.94836743 -0.00491497 1.89673486 -0.00982995 2.87384069 -0.01489386 C6.04012006 -0.0264504 9.20558953 -0.00957944 12.37183571 0.00723743 C14.66943021 0.00477598 16.96702339 0.0005597 19.26461184 -0.00525731 C25.56962438 -0.0161338 31.87437222 -0.00208345 38.17935896 0.01606309 C44.28348603 0.03168658 50.38760907 0.02454571 56.49174742 0.0198702 C68.97746811 0.01097552 81.46310853 0.0208056 93.94881248 0.04149914 C106.31623211 0.06196383 118.68361702 0.07455328 131.051054 0.07653713 C132.2057034 0.07673188 132.2057034 0.07673188 133.38367904 0.07693057 C136.50852066 0.07743053 139.63336227 0.07787049 142.75820391 0.07823266 C171.23064436 0.08153484 199.70303652 0.10387405 228.17545509 0.13829517 C255.04101685 0.17075802 281.90655424 0.19202592 308.77213478 0.19981861 C309.5996119 0.20006165 310.42708902 0.20030469 311.27964121 0.2005551 C315.44758732 0.2017772 319.61553343 0.20298052 323.78347955 0.20417689 C324.60599316 0.20441316 325.42850676 0.20464943 326.27594503 0.20489286 C327.93455294 0.20536704 329.59316086 0.20583719 331.25176877 0.20630332 C357.68154035 0.21378201 384.11130745 0.2295573 410.54107379 0.2475025 C418.27479899 0.25274335 426.00852412 0.25768739 433.74224997 0.26186442 C450.00612561 0.27075381 466.26999009 0.28243517 482.53385518 0.30343046 C489.25929742 0.31205024 495.98473038 0.31910881 502.71017838 0.32194614 C508.86862568 0.3246204 515.02704957 0.33193023 521.18548746 0.34293661 C523.4114959 0.3461324 525.63750746 0.34767622 527.86351816 0.34738632 C563.82156212 0.34589115 563.82156212 0.34589115 569.73307228 6.07310963 C572.23357962 9.35012779 573.72474898 12.32139703 574.10416603 16.49498463 C571.44512781 13.92979481 569.23282233 11.14632736 566.99479103 8.21373463 C561.51765234 3.23451764 555.39944355 3.06110639 548.37889385 3.11187458 C547.41252909 3.10691507 546.44616432 3.10195555 545.45051578 3.09684575 C542.20513625 3.08386942 538.96016678 3.09228097 535.71477699 3.10057545 C533.36742277 3.09568754 531.02007095 3.0894982 528.67272323 3.08211756 C522.89354365 3.06740616 517.11447993 3.06669122 511.3352867 3.07189003 C504.41229403 3.07735167 497.48935857 3.06545443 490.56637862 3.05311938 C476.21333482 3.02820338 461.8603282 3.02369063 447.50726623 3.02558535 C436.42482955 3.02695808 425.34240577 3.02314247 414.25997162 3.01566029 C412.66813088 3.01460995 411.07629014 3.01356234 409.4844494 3.01251742 C408.29918929 3.01173841 408.29918929 3.01173841 407.08998454 3.01094365 C406.2983717 3.01042351 405.50675886 3.00990337 404.69115776 3.00936747 C403.89822734 3.00884347 403.10529691 3.00831948 402.28833829 3.00777961 C379.98508585 2.99319531 357.68183816 2.98491431 335.37858105 2.98952961 C334.53769742 2.98970156 333.69681379 2.98987352 332.83044884 2.99005068 C328.56845178 2.99093958 324.30645473 2.9918844 320.04445768 2.99284869 C319.19800097 2.99303973 318.35154426 2.99323076 317.47943734 2.99342758 C315.76769656 2.99381467 314.05595577 2.994205 312.34421499 2.99459856 C285.70483702 3.00056963 259.0655459 2.98512597 232.42618752 2.95299244 C202.5014254 2.91692659 172.57671836 2.89758121 142.65193313 2.90253115 C139.46201416 2.90300113 136.27209519 2.90341138 133.08217621 2.90378284 C132.29672847 2.90388523 131.51128073 2.90398762 130.70203155 2.90409311 C118.83883913 2.90528853 106.97570616 2.89331303 95.11252975 2.87463856 C81.62330456 2.8534148 68.1342042 2.8495382 54.64497346 2.86893815 C47.75997054 2.8783639 40.87519454 2.87982621 33.99021149 2.8585825 C27.69045859 2.83994978 21.39115966 2.84428985 15.09142446 2.86712831 C12.80954082 2.8713335 10.52762289 2.86705017 8.24577541 2.85353237 C5.14839135 2.83642948 2.05260259 2.85002581 -1.04472065 2.87136555 C-1.93457616 2.85908802 -2.82443168 2.8468105 -3.74125251 2.83416092 C-9.9481845 2.92374397 -14.0878513 4.54091375 -18.89583397 8.49498463 C-20.74941954 10.41444139 -22.29739917 12.34708787 -23.89583397 14.49498463 C-24.55583397 13.83498463 -25.21583397 13.17498463 -25.89583397 12.49498463 C-24.62187507 10.45665038 -23.28521474 8.45646337 -21.89583397 6.49498463 C-21.23583397 6.49498463 -20.57583397 6.49498463 -19.89583397 6.49498463 C-19.89583397 5.83498463 -19.89583397 5.17498463 -19.89583397 4.49498463 C-13.09549942 1.32475417 -7.48139862 -0.08852254 0 0 Z " fill="#D5D5D5" transform="translate(215.8958339691162,190.50501537322998)"/>
<path d="M0 0 C0.33 0 0.66 0 1 0 C1.33 5.94 1.66 11.88 2 18 C2.33 18 2.66 18 3 18 C3.02361787 36.24936218 3.04111817 54.49872027 3.05181217 72.74809456 C3.05691497 81.22627406 3.06386625 89.70444385 3.07543945 98.18261719 C3.16638179 166.11732117 3.16638179 166.11732117 2.10360718 197.56378174 C1.87969956 204.98986413 1.84911562 212.41673825 1.86962891 219.84570312 C1.87510754 222.17063646 1.86952847 224.49538379 1.86328125 226.8203125 C1.85954153 236.26745948 2.12241263 245.68564645 2.5 255.125 C3.1012604 270.58579364 3.15507388 286.03286328 3.12857056 301.50210571 C3.12493801 303.91619997 3.12336457 306.33028808 3.12231445 308.74438477 C3.10238311 346.13290266 2.73315813 383.51943713 2.35595703 420.90576172 C2.34437246 422.06300562 2.3327879 423.22024952 2.32085228 424.41256142 C2.26634931 429.85128266 2.2107634 435.28998661 2.1524353 440.72866821 C2.04419502 451.11117506 1.98521651 461.49173858 1.99635029 471.87481785 C2.01101995 486.66919514 1.89487368 501.46296477 1.76428509 516.2566824 C1.71919181 521.38961283 1.67995087 526.52245404 1.65356445 531.65551758 C1.62754133 536.68661071 1.58720818 541.71740212 1.53681374 546.74830818 C1.52021217 548.648797 1.50865632 550.54933724 1.50238609 552.44988823 C1.49274419 555.09509099 1.46470524 557.73951203 1.43237305 560.38452148 C1.43380814 561.15700729 1.43524323 561.9294931 1.4367218 562.72538757 C1.34847901 567.83978414 0.28106506 571.41374375 -2 576 C-2.33 576 -2.66 576 -3 576 C-2.125 568.125 -2.125 568.125 -1 567 C-0.89578172 563.99992105 -0.85795153 561.02263181 -0.8613348 558.02190304 C-0.85849258 557.06344131 -0.85565036 556.10497959 -0.85272202 555.11747357 C-0.84431219 551.86305157 -0.84310192 548.60866486 -0.84178162 545.35423279 C-0.83722053 543.01460706 -0.83222119 540.67498214 -0.82681805 538.3353582 C-0.81460995 532.55229759 -0.80707732 526.7692437 -0.80145127 520.98617324 C-0.79445489 514.06372756 -0.78168214 507.14129573 -0.76867336 500.21885916 C-0.74482543 487.44197148 -0.72563703 474.66508072 -0.70907402 461.88818169 C-0.69265164 449.23142512 -0.67417676 436.57467432 -0.65294075 423.91792488 C-0.65162314 423.131935 -0.65030554 422.34594511 -0.648948 421.53613735 C-0.64224622 417.5447408 -0.63550758 413.5533443 -0.62875474 409.56194783 C-0.58094976 381.26664593 -0.53777681 352.97133866 -0.49731445 324.67602539 C-0.4579872 297.18188079 -0.41657019 269.68774064 -0.37231445 242.19360352 C-0.37095192 241.34660534 -0.36958939 240.49960716 -0.36818558 239.62694238 C-0.35450059 231.12129418 -0.34077302 222.61564605 -0.32701423 214.10999797 C-0.29898521 196.78191493 -0.27124049 179.45383145 -0.2436676 162.12574768 C-0.2423994 161.32897275 -0.2411312 160.53219782 -0.23982458 159.7112782 C-0.15512156 106.47419269 -0.07706753 53.23709705 0 0 Z M1 37 C1 38.65 1 40.3 1 42 C1.33 42 1.66 42 2 42 C2 40.35 2 38.7 2 37 C1.67 37 1.34 37 1 37 Z M1 149 C2 151 2 151 2 151 Z " fill="#E9E9E9" transform="translate(790,208)"/>
<path d="M0 0 C4.95 0 9.9 0 15 0 C15 5.28 15 10.56 15 16 C17.64 16 20.28 16 23 16 C23 19.63 23 23.26 23 27 C20.36 27 17.72 27 15 27 C15.495 35.415 15.495 35.415 16 44 C17.98 44.33 19.96 44.66 22 45 C22.50559908 46.43554025 23.0042749 47.8735202 23.5 49.3125 C23.7784375 50.11300781 24.056875 50.91351563 24.34375 51.73828125 C25 54 25 54 25 57 C18.96943151 58.75537674 12.5977979 58.70849034 6.5625 57.0625 C2.60054423 53.87360877 1.07094446 50.97927624 0 46 C-0.45300483 39.67285164 -0.23191444 33.33255272 0 27 C-1.98 27 -3.96 27 -6 27 C-6 23.37 -6 19.74 -6 16 C-4.02 16 -2.04 16 0 16 C0 10.72 0 5.44 0 0 Z " fill="#F2F2F2" transform="translate(353,305)"/>
<path d="M0 0 C0.99 0.66 1.98 1.32 3 2 C1.68938409 6.23429756 0.05643741 10.07407404 -2 14 C-3.12148438 13.82210938 -3.12148438 13.82210938 -4.265625 13.640625 C-5.25046875 13.51171875 -6.2353125 13.3828125 -7.25 13.25 C-8.22453125 13.11078125 -9.1990625 12.9715625 -10.203125 12.828125 C-13.07843781 12.74271541 -13.07843781 12.74271541 -15.13671875 14.64453125 C-17.45196471 17.57135161 -17.53388269 19.16025182 -17.609375 22.859375 C-17.64160156 23.97441406 -17.67382812 25.08945312 -17.70703125 26.23828125 C-17.72830078 27.97658203 -17.72830078 27.97658203 -17.75 29.75 C-17.77964844 30.92433594 -17.80929687 32.09867187 -17.83984375 33.30859375 C-17.91049657 36.2053595 -17.95751736 39.1026842 -18 42 C-22.95 42 -27.9 42 -33 42 C-33 28.47 -33 14.94 -33 1 C-28.05 1 -23.1 1 -18 1 C-17.67 2.32 -17.34 3.64 -17 5 C-16.236875 4.175 -15.47375 3.35 -14.6875 2.5 C-10.39779755 -1.12264346 -5.34132623 -0.79658711 0 0 Z " fill="#F2F2F2" transform="translate(492,320)"/>
<path d="M0 0 C0 3 0 3 -1.5625 5 C-7.56864632 9.92812006 -13.18227351 10.43852944 -20.66559601 10.39034748 C-22.10546231 10.39897113 -22.10546231 10.39897113 -23.57441682 10.40776899 C-26.79782015 10.42341635 -30.02083124 10.41773482 -33.2442627 10.41218567 C-35.57583152 10.41905581 -37.90739681 10.42723202 -40.23895693 10.43660372 C-45.97904656 10.45625219 -51.71903305 10.46198186 -57.45915356 10.46186897 C-64.33533486 10.46251306 -71.21144289 10.48051216 -78.08759527 10.49907071 C-91.55998989 10.53487505 -105.03236821 10.55372888 -118.50480281 10.56557711 C-130.29468442 10.57601671 -142.08453968 10.59241224 -153.87440491 10.61469078 C-154.65619379 10.61616116 -155.43798267 10.61763154 -156.24346212 10.61914647 C-159.41692953 10.62512603 -162.59039688 10.631137 -165.76386415 10.63719289 C-195.53862211 10.69394866 -225.31338158 10.7340684 -255.08817524 10.76617835 C-281.5462796 10.79479834 -308.00433461 10.83598447 -334.46240234 10.88842773 C-336.1612464 10.89179134 -337.86009045 10.89515461 -339.55893451 10.89851753 C-340.81874365 10.90101141 -340.81874365 10.90101141 -342.10400349 10.90355568 C-346.33173845 10.91191741 -350.55947347 10.92024892 -354.78720856 10.92854786 C-355.62126068 10.93018594 -356.4553128 10.93182402 -357.31463923 10.93351174 C-379.41723225 10.97674629 -401.51983952 11.01046991 -423.62245321 11.04115504 C-426.00048144 11.04446445 -428.37850966 11.04777543 -430.75653788 11.05108971 C-432.33408478 11.05328606 -433.91163168 11.05547491 -435.4891786 11.05765621 C-446.49119219 11.07294474 -457.49319404 11.09191326 -468.49519719 11.1133885 C-482.6728002 11.14105128 -496.85038711 11.16217816 -511.02801478 11.17171214 C-517.86625008 11.17648548 -524.7044448 11.18440316 -531.54266167 11.20141029 C-537.79842675 11.21663161 -544.05412888 11.22260582 -550.30991167 11.22109183 C-552.57697653 11.22217128 -554.84404277 11.22666214 -557.1110931 11.23484788 C-560.18560905 11.24543959 -563.25987932 11.2437206 -566.33440399 11.23885822 C-567.66350171 11.24785947 -567.66350171 11.24785947 -569.01944989 11.25704256 C-576.23554859 11.22349567 -581.87056854 10.08628764 -588 6 C-585 6 -585 6 -582.36853272 6.98444444 C-578.17325251 8.24925037 -574.4573539 8.27519234 -570.10347652 8.24888897 C-569.21448885 8.25149625 -568.32550117 8.25410354 -567.40957448 8.25678983 C-564.42116614 8.26310198 -561.43296699 8.25511882 -558.44456482 8.24723816 C-556.28373593 8.24882606 -554.12290754 8.25128947 -551.96208054 8.25455457 C-546.01561273 8.2609795 -540.06921281 8.25489074 -534.12274945 8.24679029 C-527.71104215 8.24022059 -521.29934254 8.24516055 -514.88763428 8.24867249 C-503.76771172 8.25313768 -492.64781131 8.25023099 -481.52789116 8.24202538 C-469.84098564 8.23340386 -458.1540891 8.22850536 -446.46718025 8.22869301 C-445.37578716 8.22870448 -445.37578716 8.22870448 -444.26234573 8.22871618 C-441.30833432 8.22875709 -438.35432291 8.22882271 -435.4003115 8.22892199 C-407.66359371 8.22982877 -379.92688956 8.21987779 -352.19017651 8.20449232 C-327.61840018 8.19091228 -303.04663356 8.18462917 -278.47485352 8.18530273 C-276.90149553 8.18534315 -275.32813755 8.18538351 -273.75477957 8.18542381 C-272.9769021 8.18544416 -272.19902462 8.18546452 -271.39757511 8.18548548 C-267.480748 8.1855863 -263.56392088 8.18567688 -259.64709377 8.18575573 C-258.87415467 8.18577244 -258.10121557 8.18578916 -257.30485406 8.18580638 C-236.72179717 8.18617322 -216.13874147 8.18161403 -195.55568558 8.17542917 C-194.82138224 8.17520889 -194.08707889 8.17498862 -193.33052393 8.17476168 C-190.37838246 8.17387355 -187.426241 8.17298507 -184.47409953 8.17207072 C-174.26862641 8.16893035 -164.06315424 8.16740398 -153.85768066 8.16695923 C-140.67133393 8.16635712 -127.48499565 8.16215756 -114.29865222 8.15252777 C-107.95291419 8.14796103 -101.60718578 8.14484486 -95.261446 8.14612198 C-63.21248759 8.16127517 -63.21248759 8.16127517 -31.16717536 7.72677634 C-29.60161226 7.69518441 -28.03595434 7.66791544 -26.47023248 7.64553412 C-13.06040841 7.66849618 -13.06040841 7.66849618 -1.4375 1.8125 C-0.7259375 0.9153125 -0.7259375 0.9153125 0 0 Z " fill="#979797" transform="translate(786,784)"/>
<path d="M0 0 C4.95 0 9.9 0 15 0 C15 13.53 15 27.06 15 41 C10.05 41 5.1 41 0 41 C0 27.47 0 13.94 0 0 Z " fill="#F0F0F0" transform="translate(435,321)"/>
<path d="M0 0 C0.77927234 2.76213485 1.12438295 5.20932091 1.12189716 8.0760237 C1.123632 8.88516425 1.12536685 9.69430481 1.12715426 10.52796477 C1.12395555 11.41303169 1.12075684 12.29809861 1.1174612 13.20998573 C1.11801586 14.15709441 1.11857051 15.10420308 1.11914197 16.08001202 C1.11978765 19.27785919 1.11324684 22.47565226 1.10679626 25.67349243 C1.10580084 27.97970578 1.10525064 30.28591936 1.10510927 32.59213293 C1.10345843 38.94867964 1.0955773 45.30520603 1.08674753 51.66174626 C1.07870914 57.8071894 1.07636421 63.95263599 1.07349832 70.09808328 C1.06751009 82.67438776 1.0571471 95.25068494 1.04459953 107.82698441 C1.02677594 125.79662925 1.01736751 143.76627316 1.00970889 161.73592484 C1.00659921 168.94535081 1.00321723 176.15477666 0.99983311 183.3642025 C0.99945834 184.16521631 0.99908357 184.96623013 0.99869744 185.79151709 C0.98972209 204.86443066 0.97806205 223.93734234 0.96557617 243.01025391 C0.96503177 243.84492668 0.96448736 244.67959945 0.96392646 245.53956534 C0.95120411 265.01030565 0.93719603 284.48104452 0.92095947 303.95178223 C0.92026228 304.78897116 0.9195651 305.62616009 0.91884678 306.48871839 C0.91532922 310.71009654 0.91180239 314.93147468 0.9082749 319.15285282 C0.90757811 319.98713282 0.90688133 320.82141283 0.90616344 321.68097405 C0.90475668 323.36488777 0.90334841 325.04880149 0.90193863 326.73271521 C0.87868844 354.55428627 0.86223398 382.37585492 0.85326203 410.19743435 C0.85198543 414.12664221 0.85061666 418.05585003 0.84918404 421.98505783 C0.84876202 423.14501389 0.84876202 423.14501389 0.84833147 424.3284034 C0.8435744 436.77482338 0.8314112 449.22122568 0.81629714 461.66763695 C0.80122137 474.1777996 0.79322074 486.68795023 0.79251044 499.1981221 C0.7919144 505.9759494 0.78779392 512.75373089 0.7750473 519.53154755 C0.76344063 525.73578211 0.76104654 531.93994933 0.76598949 538.14419214 C0.76614085 540.38919105 0.76289389 542.63419328 0.75591242 544.87918134 C0.74691147 547.93119302 0.75028571 550.98295472 0.75669765 554.03496742 C0.75115778 554.90598734 0.74561791 555.77700726 0.73991016 556.67442173 C0.7666101 561.86630342 1.38208392 566.61739492 2.5710536 571.67455193 C3.03005766 574.16295164 3.07041502 576.47523084 3 579 C-0.28280036 576.81146643 -0.4324181 576.59119834 -1.17176986 572.99402839 C-2.13104608 568.00773876 -2.27863077 563.16062829 -2.25168228 558.09554577 C-2.25458916 557.1341168 -2.25749604 556.17268783 -2.26049101 555.18212464 C-2.26778051 551.96568707 -2.26085248 548.74944089 -2.25396729 545.53300476 C-2.25627211 543.20169964 -2.25944878 540.87039524 -2.26342177 538.53909236 C-2.27089976 532.80751488 -2.2690816 527.07599304 -2.26332024 521.34441481 C-2.25693634 514.47697422 -2.26217356 507.60955481 -2.26774407 500.74211527 C-2.2782708 487.28867401 -2.27736484 473.83525176 -2.27158624 460.38180869 C-2.26655541 448.61160611 -2.26524162 436.84141049 -2.26763153 425.07120705 C-2.2677843 424.29050662 -2.26793707 423.50980619 -2.26809447 422.70544817 C-2.26871714 419.53639669 -2.26935394 416.36734522 -2.270014 413.19829375 C-2.27613112 383.4750087 -2.27058592 353.75173577 -2.2598202 324.02845259 C-2.25032442 297.61035189 -2.25118226 271.19227046 -2.26074219 244.77416992 C-2.2714453 215.09774616 -2.27570196 185.4213331 -2.26951766 155.74490768 C-2.26887621 152.5831765 -2.26825053 149.42144531 -2.26763153 146.25971413 C-2.26747338 145.48120545 -2.26731522 144.70269678 -2.26715227 143.90059693 C-2.26487525 132.13317281 -2.26754165 120.36575641 -2.27259064 108.59833336 C-2.27829999 95.22508882 -2.27689887 81.85186627 -2.26602915 68.47862449 C-2.260663 61.65088097 -2.25848145 54.82317322 -2.26532745 47.99542999 C-2.27126012 41.75284217 -2.26805644 35.51033017 -2.25737235 29.26774929 C-2.25512693 27.00214861 -2.25629994 24.73654161 -2.26112393 22.47094496 C-2.26715319 19.40562008 -2.26102084 16.34055931 -2.25168228 13.27524853 C-2.25636461 12.38347838 -2.26104695 11.49170823 -2.26587117 10.57291475 C-2.26086413 9.7577843 -2.25585709 8.94265385 -2.25069833 8.10282248 C-2.25056281 7.40167549 -2.25042729 6.70052849 -2.25028767 5.97813461 C-1.95660062 3.65699544 -1.1434441 2.02541444 0 0 Z " fill="#BDBDBD" transform="translate(190,205)"/>
<path d="M0 0 C1.42794388 -0.00692307 1.42794388 -0.00692307 2.88473511 -0.01398599 C6.06313141 -0.0245433 9.24071124 -0.00665487 12.41906548 0.01117325 C14.72521176 0.00942823 17.03135726 0.00592459 19.33749855 0.00081658 C25.66568353 -0.00812069 31.99359734 0.00786344 38.32174778 0.02792883 C44.4477327 0.04540073 50.57372029 0.0400858 56.69972252 0.03720146 C69.22721003 0.03195231 81.75461298 0.04528693 94.28207588 0.06927109 C106.68298702 0.09295202 119.08386294 0.10833746 131.48479652 0.11268234 C132.25630428 0.1129573 133.02781204 0.11323226 133.82269883 0.11351555 C137.74091423 0.11486891 141.65912965 0.11607444 145.57734512 0.11722305 C173.31862571 0.12562116 201.05986033 0.1525607 228.80111504 0.1904335 C255.7487037 0.22718027 282.69627977 0.2555103 309.64388847 0.27246475 C310.47476235 0.27299086 311.30563624 0.27351696 312.16168811 0.27405901 C320.50578558 0.27933316 328.84988314 0.28443641 337.19398079 0.28941445 C354.19135263 0.29955887 371.18872364 0.31084388 388.18609428 0.32281876 C388.96757871 0.32336792 389.74906315 0.32391708 390.55422892 0.32448288 C442.72638741 0.3612757 494.89851951 0.42473863 547.07064629 0.49219131 C547.07064629 0.82219131 547.07064629 1.15219131 547.07064629 1.49219131 C545.90008033 1.49240868 544.72951437 1.49262605 543.52347672 1.49285001 C491.93501467 1.50275749 440.34655819 1.51884879 388.75811577 1.56648636 C387.58658012 1.56756554 387.58658012 1.56756554 386.39137709 1.56866652 C369.41763008 1.58433923 352.44388434 1.60112156 335.47013957 1.61904694 C327.14622014 1.62783078 318.82230047 1.63636943 310.49838066 1.64477921 C309.67005056 1.64562025 308.84172045 1.6464613 307.98828944 1.64732783 C281.13967953 1.67447372 254.29109269 1.68542833 227.44247013 1.68798656 C199.85203842 1.69070098 172.26166506 1.70975002 144.67126047 1.74935246 C140.77431804 1.7549384 136.87737536 1.7603376 132.98043251 1.76562309 C131.82997108 1.76719215 131.82997108 1.76719215 130.65626801 1.7687929 C118.31004157 1.78515103 105.96387349 1.78428963 93.61764087 1.77698849 C81.20551794 1.77001587 68.7935163 1.78118516 56.38142593 1.81085422 C49.65621826 1.82642738 42.93127293 1.83332696 36.20605469 1.81878853 C30.04961297 1.80565755 23.89365173 1.81549184 17.73726426 1.84362904 C15.50965171 1.84974971 13.28199667 1.84742632 11.05440594 1.83582058 C-5.73382526 1.31570461 -5.73382526 1.31570461 -19.83307445 9.36786813 C-21.73642035 11.45359527 -21.73642035 11.45359527 -23.92935371 14.49219131 C-24.58935371 13.83219131 -25.24935371 13.17219131 -25.92935371 12.49219131 C-24.65539481 10.45385707 -23.31873449 8.45367005 -21.92935371 6.49219131 C-21.26935371 6.49219131 -20.60935371 6.49219131 -19.92935371 6.49219131 C-19.92935371 5.83219131 -19.92935371 5.17219131 -19.92935371 4.49219131 C-13.11701643 1.31396573 -7.49501442 -0.09080302 0 0 Z " fill="#FEFEFE" transform="translate(215.92935371398926,190.50780868530273)"/>
<path d="M0 0 C0.33 0 0.66 0 1 0 C1.15682933 27.01691341 1.30467308 54.03386458 1.4429636 81.05087948 C1.50742403 93.60694299 1.57443981 106.16298151 1.64819336 118.71899414 C1.93759782 168.25701427 2.18136205 217.79440398 1.73908496 267.33220983 C1.71504514 270.22963379 1.69626673 273.12704746 1.6789875 276.02451897 C1.65145557 280.49353102 1.60902918 284.96214512 1.55416799 289.4309032 C1.53640303 291.04665878 1.52341244 292.66247536 1.51567149 294.27831006 C1.50403788 296.4730711 1.47407451 298.66684371 1.4393158 300.86134338 C1.42689315 302.07982247 1.4144705 303.29830156 1.40167141 304.55370426 C0.93043505 308.59685944 -0.2401962 311.35042951 -2 315 C-2.33 315 -2.66 315 -3 315 C-2.125 307.125 -2.125 307.125 -1 306 C-0.89786402 304.36855259 -0.86601091 302.73267144 -0.8613348 301.09803677 C-0.85586036 300.03012667 -0.85038591 298.96221658 -0.84474558 297.86194557 C-0.84376747 296.67422823 -0.84278936 295.4865109 -0.84178162 294.26280212 C-0.83684364 293.01238068 -0.83190566 291.76195923 -0.82681805 290.47364622 C-0.81318392 286.98702731 -0.80580341 283.50041818 -0.79939139 280.01377952 C-0.7914105 276.25983072 -0.77770483 272.50590246 -0.76467896 268.75196838 C-0.74288328 262.24275795 -0.72475015 255.73354548 -0.70907402 249.22431755 C-0.68640346 239.81295807 -0.65825679 230.40162131 -0.62875474 220.99028105 C-0.58104424 205.722616 -0.53778947 190.45494168 -0.49731445 175.18725586 C-0.45797709 160.35228758 -0.41655512 145.51732755 -0.37231445 130.68237305 C-0.36959018 129.76861512 -0.36686591 128.8548572 -0.36405908 127.91340964 C-0.3503799 123.32955437 -0.33665956 118.74569922 -0.32291877 114.16184413 C-0.20889969 76.10791323 -0.10210239 38.05396463 0 0 Z " fill="#B9B9B9" transform="translate(790,469)"/>
<path d="M0 0 C5.53846154 3.07692308 5.53846154 3.07692308 7 6 C7.41204834 10.63554388 6.87454146 13.30416098 4 17 C0.58567505 19.56074371 -2.85540605 19.44406364 -7 19 C-9.36497439 17.13291495 -10.66030715 15.67938569 -12 13 C-12.68839635 6.00130378 -12.68839635 6.00130378 -9.9375 2 C-6.21801238 -0.5324171 -4.423816 -0.69849726 0 0 Z " fill="#202020" transform="translate(524,332)"/>
<path d="M0 0 C2.5 1.5 2.5 1.5 4 4 C4.791013 8.02098277 4.62153384 10.96411027 2.5 14.5 C-1.03067876 16.61840725 -3.98396388 16.79990863 -8 16 C-11.32199976 13.87051297 -11.89590149 12.3367893 -13.0625 8.5625 C-13 5 -13 5 -11.0625 2.0625 C-6.86229946 -0.76620649 -4.99614519 -0.71373503 0 0 Z " fill="#F2F2F2" transform="translate(447,296)"/>
<path d="M0 0 C0 3 0 3 -1.5625 5 C-8.37973456 10.59362836 -14.9685645 10.41930311 -23.45288086 10.34057617 C-24.69260651 10.34101425 -25.93233215 10.34145233 -27.20962524 10.34190369 C-30.59155255 10.34017771 -33.97292341 10.32518281 -37.3547523 10.30418181 C-40.89546602 10.2853664 -44.43618797 10.28366076 -47.97694397 10.28010559 C-54.67394116 10.27079935 -61.37079059 10.24620498 -68.06772286 10.21605712 C-75.69528869 10.1824687 -83.32286176 10.16601597 -90.9504832 10.15097082 C-106.6337409 10.11965402 -122.31685136 10.0669214 -138 10 C-138 9.67 -138 9.34 -138 9 C-136.97969193 8.98969254 -135.95938385 8.97938507 -134.90815735 8.96876526 C-125.10397767 8.86930704 -115.29983787 8.76647475 -105.49572468 8.66066074 C-100.46013668 8.60641234 -95.42454302 8.55319522 -90.38891602 8.50268555 C-77.85273924 8.37631824 -65.31712475 8.22682792 -52.78168488 8.04068756 C-50.02226608 8.00032568 -47.26281763 7.9628476 -44.50335693 7.92547607 C-40.19199286 7.86501666 -35.88119485 7.78832359 -31.57033348 7.69907951 C-29.99363927 7.6684064 -28.41684551 7.64241908 -26.83999062 7.62158394 C-13.25550834 7.71511728 -13.25550834 7.71511728 -1.4375 1.8125 C-0.963125 1.214375 -0.48875 0.61625 0 0 Z " fill="#989898" transform="translate(786,784)"/>
<path d="M0 0 C17.83750506 -0.07017518 35.67497414 -0.12302979 53.51258755 -0.15543652 C61.79546672 -0.17088549 70.07825997 -0.19193722 78.36108398 -0.22631836 C85.58294184 -0.25628118 92.80473744 -0.27558931 100.02665573 -0.28226548 C103.84831296 -0.28616612 107.66979214 -0.29529176 111.49139214 -0.31719017 C115.09387114 -0.3376643 118.6961 -0.34381194 122.29863167 -0.33932304 C124.23997323 -0.34053236 126.181288 -0.35661704 128.12255859 -0.3732605 C143.70059561 -0.31851629 143.70059561 -0.31851629 148.66844845 4.67811298 C151.18751352 7.88832953 152.62523706 10.87760767 153 15 C150.34096178 12.43481018 148.1286563 9.65134274 145.890625 6.71875 C139.48935556 0.89941415 131.7881676 1.55830371 123.62915039 1.56762695 C122.27837228 1.55860007 120.92760235 1.54827058 119.57684326 1.53674316 C115.92652586 1.5092555 112.27636423 1.49989994 108.62595677 1.49388909 C104.80489173 1.48448387 100.98394206 1.4582788 97.16294861 1.43388367 C89.93480577 1.39027392 82.7066854 1.3616931 75.47845119 1.33856028 C67.24621445 1.31147892 59.0140941 1.26756927 50.78194058 1.22227156 C33.85468705 1.12950446 16.92740835 1.05778749 0 1 C0 0.67 0 0.34 0 0 Z " fill="#D5D5D5" transform="translate(637,192)"/>
<path d="M0 0 C1.32 1.32 2.64 2.64 4 4 C3.01 4.495 3.01 4.495 2 5 C1.67 37.34 1.34 69.68 1 103 C0.67 103 0.34 103 0 103 C0 69.01 0 35.02 0 0 Z " fill="#292929" transform="translate(405,568)"/>
<path d="M0 0 C0.33 0 0.66 0 1 0 C1.00808685 0.7044223 1.01617371 1.4088446 1.02450562 2.13461304 C1.10284121 8.81277335 1.1902451 15.4907485 1.28752708 22.16866112 C1.33721459 25.60084464 1.38354388 29.03300141 1.421875 32.46533203 C1.46621958 36.42236811 1.52575273 40.37910949 1.5859375 44.3359375 C1.60326431 46.16153702 1.60326431 46.16153702 1.62094116 48.02401733 C1.7257327 54.14415105 2.12623959 59.84765788 3.57705688 65.80459595 C4.04728898 68.24546664 4.06796853 70.52011956 4 73 C1 71 1 71 -0.18896484 67.27758789 C-1.44579795 60.74011913 -1.13943883 54.18427763 -0.9765625 47.55859375 C-0.95034082 46.1814192 -0.92507836 44.80422609 -0.90072632 43.42701721 C-0.83460871 39.83149402 -0.75560584 36.23636943 -0.67376709 32.64117432 C-0.59232092 28.96080631 -0.52326999 25.28020705 -0.453125 21.59960938 C-0.31410227 14.39945949 -0.16144404 7.19968579 0 0 Z " fill="#C1C1C1" transform="translate(189,711)"/>
<path d="M0 0 C0.33 0 0.66 0 1 0 C1.06964322 9.13631675 1.12288376 18.2725415 1.15543652 27.4090662 C1.17106363 31.65195687 1.19224757 35.89466534 1.22631836 40.13745117 C1.2590177 44.23529783 1.27687523 48.33296971 1.28463173 52.43093681 C1.29015632 53.99097887 1.30094447 55.55101183 1.31719017 57.11097908 C1.33910575 59.3034411 1.34196114 61.49518945 1.34057617 63.68774414 C1.34723801 64.93350723 1.35389984 66.17927032 1.36076355 67.46278381 C0.94003294 71.58796533 -0.19810134 74.29194771 -2 78 C-2.33 78 -2.66 78 -3 78 C-2.125 70.125 -2.125 70.125 -1 69 C-0.87603129 66.85331715 -0.8219928 64.70257613 -0.79467773 62.55249023 C-0.78477814 61.87934784 -0.77487854 61.20620544 -0.76467896 60.51266479 C-0.73298162 58.27801075 -0.70827426 56.04333542 -0.68359375 53.80859375 C-0.66303131 52.26302016 -0.64203504 50.71745228 -0.62062073 49.17189026 C-0.56532663 45.09649268 -0.51594987 41.02104375 -0.46777344 36.94555664 C-0.41761183 32.7898296 -0.36189796 28.63417748 -0.30664062 24.47851562 C-0.19896936 16.3190737 -0.09754448 8.15956924 0 0 Z " fill="#B4B4B4" transform="translate(790,706)"/>
<path d="M0 0 C4.67729286 -0.07476614 9.35422951 -0.12888954 14.03198242 -0.16479492 C15.61960926 -0.17978013 17.20719543 -0.20017546 18.79467773 -0.22631836 C35.61389072 -0.49614531 35.61389072 -0.49614531 43 3 C46.46052594 6.51367047 48.54523597 9.9975957 49 15 C46.34096178 12.43481018 44.1286563 9.65134274 41.890625 6.71875 C37.04624558 2.31476871 31.41882493 1.54718667 25.09765625 1.48828125 C24.01380898 1.46135445 24.01380898 1.46135445 22.9080658 1.43388367 C20.62626789 1.38019994 18.34467394 1.34602237 16.0625 1.3125 C14.50452915 1.27928964 12.94658509 1.24479659 11.38867188 1.20898438 C7.5925962 1.1244988 3.79657656 1.0574902 0 1 C0 0.67 0 0.34 0 0 Z " fill="#DBDBDB" transform="translate(741,192)"/>
<path d="M0 0 C0.50752304 0.21062576 1.01504608 0.42125153 1.53794861 0.63825989 C8.15868614 3.13969522 14.22442686 3.47054693 21.25390625 3.51171875 C22.96609596 3.53864555 22.96609596 3.53864555 24.71287537 3.56611633 C28.32938025 3.6199442 31.94575524 3.65402723 35.5625 3.6875 C38.02671068 3.72069729 40.49090427 3.75518916 42.95507812 3.79101562 C48.96993552 3.87565481 54.98481032 3.94412038 61 4 C61 4.33 61 4.66 61 5 C54.15016894 5.1942683 47.30004663 5.37151308 40.44946289 5.53710938 C38.1205862 5.595392 35.79180247 5.6575249 33.46313477 5.72363281 C30.10971 5.818156 26.75619129 5.89868084 23.40234375 5.9765625 C22.36665756 6.00875885 21.33097137 6.0409552 20.26390076 6.0741272 C12.53991896 6.2330345 6.5195393 5.54392133 0 1 C0 0.67 0 0.34 0 0 Z " fill="#9B9B9B" transform="translate(198,789)"/>
<path d="M0 0 C0 3 0 3 -1.5625 5 C-7.51066124 9.88054256 -12.81648876 10.41253271 -20.21484375 10.07421875 C-21.07058487 10.04777786 -21.92632599 10.02133698 -22.80799866 9.99409485 C-25.51858957 9.90691423 -28.2277517 9.79756621 -30.9375 9.6875 C-32.78445538 9.62418044 -34.63146127 9.56231652 -36.47851562 9.50195312 C-40.98643596 9.35146788 -45.49321034 9.18110894 -50 9 C-50 8.67 -50 8.34 -50 8 C-48.9262915 7.98541748 -47.85258301 7.97083496 -46.74633789 7.95581055 C-42.72599584 7.89741528 -38.70618998 7.8201885 -34.6862793 7.73754883 C-32.95329554 7.70449201 -31.2202091 7.67640147 -29.48706055 7.65356445 C-26.9818179 7.61966108 -24.4775002 7.56733272 -21.97265625 7.51171875 C-21.20977798 7.50532883 -20.44689972 7.4989389 -19.66090393 7.49235535 C-13.04879311 7.31550994 -6.5704895 6.19432031 -1.4375 1.8125 C-0.963125 1.214375 -0.48875 0.61625 0 0 Z " fill="#777777" transform="translate(786,784)"/>
<path d="M0 0 C-0.51949219 0.29132813 -1.03898438 0.58265625 -1.57421875 0.8828125 C-6.41292851 3.72700788 -9.64909233 6.49721782 -13 11 C-13.66 10.34 -14.32 9.68 -15 9 C-13.7260411 6.96166576 -12.38938077 4.96147874 -11 3 C-10.34 3 -9.68 3 -9 3 C-9 2.34 -9 1.68 -9 1 C-5.47051709 -0.66670026 -3.71727674 -1.13583456 0 0 Z " fill="#EFEFEF" transform="translate(205,194)"/>
<path d="M0 0 C0.33 0 0.66 0 1 0 C1 9.24 1 18.48 1 28 C1.66 28 2.32 28 3 28 C2.67 28.99 2.34 29.98 2 31 C1.34 31 0.68 31 0 31 C0 20.77 0 10.54 0 0 Z " fill="#232323" transform="translate(397,293)"/>
<path d="M0 0 C3.05848559 0.07112757 5.23079965 0.2450441 7.4765625 2.44921875 C9.97876263 5.82206747 11.61190693 8.73097619 12 13 C9.31640857 10.38030361 6.91373891 7.58506495 4.5 4.71875 C3.06234829 3.07144075 1.56405768 1.52681822 0 0 Z " fill="#F0F0F0" transform="translate(778,194)"/>
<path d="M0 0 C0.78310547 0.30744141 0.78310547 0.30744141 1.58203125 0.62109375 C7.70748632 2.86316049 13.50382011 3.64787062 20 4 C20 4.33 20 4.66 20 5 C12.29498124 6.35175768 6.60875794 5.60610402 0 1 C0 0.67 0 0.34 0 0 Z " fill="#B2B2B2" transform="translate(198,789)"/>
<path d="M0 0 C0.33 0 0.66 0 1 0 C1.33951619 1.56116819 1.67132544 3.12401338 2 4.6875 C2.185625 5.55761719 2.37125 6.42773438 2.5625 7.32421875 C2.98972047 9.93712964 3.07616201 12.35813038 3 15 C2.01 14.34 1.02 13.68 0 13 C-0.29296875 9.9609375 -0.29296875 9.9609375 -0.1875 6.375 C-0.16042969 5.18648437 -0.13335937 3.99796875 -0.10546875 2.7734375 C-0.07066406 1.85820313 -0.03585938 0.94296875 0 0 Z " fill="#7B7B7B" transform="translate(190,769)"/>
<path d="M0 0 C0.33 0 0.66 0 1 0 C1.3152595 5.98993047 0.68219822 9.63560356 -2 15 C-2.33 15 -2.66 15 -3 15 C-2.44854729 9.76119922 -1.57077907 5.02649303 0 0 Z " fill="#A0A0A0" transform="translate(790,769)"/>
</svg>
